<mxfile host="app.diagrams.net" modified="2023-05-12T23:47:46.030Z" agent="Mozilla/5.0 (X11; Linux x86_64; rv:109.0) Gecko/20100101 Firefox/112.0" etag="iGNt29gEps0nZfZQLpF5" version="21.2.9" type="device">
  <diagram id="C5RBs43oDa-KdzZeNtuy" name="Page-1">
    <mxGraphModel dx="1687" dy="893" grid="1" gridSize="10" guides="1" tooltips="1" connect="1" arrows="1" fold="1" page="1" pageScale="1" pageWidth="827" pageHeight="1169" math="0" shadow="0">
      <root>
        <mxCell id="WIyWlLk6GJQsqaUBKTNV-0" />
        <mxCell id="WIyWlLk6GJQsqaUBKTNV-1" parent="WIyWlLk6GJQsqaUBKTNV-0" />
        <mxCell id="3TPBliiVLT5k9kqOGAwY-2" style="edgeStyle=orthogonalEdgeStyle;rounded=0;orthogonalLoop=1;jettySize=auto;html=1;exitX=0.5;exitY=1;exitDx=0;exitDy=0;entryX=0.5;entryY=0;entryDx=0;entryDy=0;" parent="WIyWlLk6GJQsqaUBKTNV-1" source="WIyWlLk6GJQsqaUBKTNV-3" target="3TPBliiVLT5k9kqOGAwY-0" edge="1">
          <mxGeometry relative="1" as="geometry" />
        </mxCell>
        <mxCell id="WIyWlLk6GJQsqaUBKTNV-3" value="Módulo Liga" style="rounded=1;whiteSpace=wrap;html=1;fontSize=12;glass=0;strokeWidth=1;shadow=0;fillColor=#dae8fc;strokeColor=#6c8ebf;" parent="WIyWlLk6GJQsqaUBKTNV-1" vertex="1">
          <mxGeometry x="394.5" y="60" width="120" height="40" as="geometry" />
        </mxCell>
        <mxCell id="3TPBliiVLT5k9kqOGAwY-9" style="edgeStyle=orthogonalEdgeStyle;rounded=0;orthogonalLoop=1;jettySize=auto;html=1;entryX=0.5;entryY=0;entryDx=0;entryDy=0;" parent="WIyWlLk6GJQsqaUBKTNV-1" source="3TPBliiVLT5k9kqOGAwY-0" target="3TPBliiVLT5k9kqOGAwY-4" edge="1">
          <mxGeometry relative="1" as="geometry" />
        </mxCell>
        <mxCell id="3TPBliiVLT5k9kqOGAwY-0" value="Lê ID na EEPROM" style="rounded=1;whiteSpace=wrap;html=1;fontSize=12;glass=0;strokeWidth=1;shadow=0;fillColor=#dae8fc;strokeColor=#6c8ebf;" parent="WIyWlLk6GJQsqaUBKTNV-1" vertex="1">
          <mxGeometry x="394.5" y="130" width="120" height="50" as="geometry" />
        </mxCell>
        <mxCell id="3TPBliiVLT5k9kqOGAwY-5" value="Sim" style="edgeStyle=orthogonalEdgeStyle;rounded=0;orthogonalLoop=1;jettySize=auto;html=1;entryX=0.5;entryY=0;entryDx=0;entryDy=0;exitX=0;exitY=0.5;exitDx=0;exitDy=0;" parent="WIyWlLk6GJQsqaUBKTNV-1" source="3TPBliiVLT5k9kqOGAwY-4" target="3TPBliiVLT5k9kqOGAwY-6" edge="1">
          <mxGeometry x="-0.3104" relative="1" as="geometry">
            <mxPoint x="314.5" y="281" as="targetPoint" />
            <mxPoint x="394.5" y="236" as="sourcePoint" />
            <mxPoint as="offset" />
          </mxGeometry>
        </mxCell>
        <mxCell id="3TPBliiVLT5k9kqOGAwY-21" value="Não" style="edgeStyle=orthogonalEdgeStyle;rounded=0;orthogonalLoop=1;jettySize=auto;html=1;exitX=1;exitY=0.5;exitDx=0;exitDy=0;entryX=0.5;entryY=0;entryDx=0;entryDy=0;" parent="WIyWlLk6GJQsqaUBKTNV-1" target="3TPBliiVLT5k9kqOGAwY-55" edge="1">
          <mxGeometry x="-0.3911" relative="1" as="geometry">
            <mxPoint x="508.5" y="235" as="sourcePoint" />
            <mxPoint x="684.5" y="270" as="targetPoint" />
            <Array as="points">
              <mxPoint x="653" y="235" />
            </Array>
            <mxPoint as="offset" />
          </mxGeometry>
        </mxCell>
        <mxCell id="3TPBliiVLT5k9kqOGAwY-4" value="ID é 255?" style="shape=parallelogram;perimeter=parallelogramPerimeter;whiteSpace=wrap;html=1;fixedSize=1;fillColor=#fff2cc;strokeColor=#d6b656;" parent="WIyWlLk6GJQsqaUBKTNV-1" vertex="1">
          <mxGeometry x="389.5" y="210" width="130" height="50" as="geometry" />
        </mxCell>
        <mxCell id="3TPBliiVLT5k9kqOGAwY-51" style="edgeStyle=orthogonalEdgeStyle;rounded=0;orthogonalLoop=1;jettySize=auto;html=1;exitX=0.5;exitY=1;exitDx=0;exitDy=0;entryX=0.5;entryY=0;entryDx=0;entryDy=0;" parent="WIyWlLk6GJQsqaUBKTNV-1" source="3TPBliiVLT5k9kqOGAwY-6" target="3TPBliiVLT5k9kqOGAwY-50" edge="1">
          <mxGeometry relative="1" as="geometry" />
        </mxCell>
        <mxCell id="3TPBliiVLT5k9kqOGAwY-6" value="Solicitar novo ID da central" style="rounded=1;whiteSpace=wrap;html=1;fontSize=12;glass=0;strokeWidth=1;shadow=0;fillColor=#d5e8d4;strokeColor=#82b366;" parent="WIyWlLk6GJQsqaUBKTNV-1" vertex="1">
          <mxGeometry x="254.5" y="290" width="120" height="40" as="geometry" />
        </mxCell>
        <mxCell id="3TPBliiVLT5k9kqOGAwY-46" value="Main Loop do Módúlos Periféricos" style="rounded=1;whiteSpace=wrap;html=1;fillColor=#f5f5f5;gradientColor=#b3b3b3;strokeColor=#666666;" parent="WIyWlLk6GJQsqaUBKTNV-1" vertex="1">
          <mxGeometry x="592.5" y="50" width="220" height="30" as="geometry" />
        </mxCell>
        <mxCell id="3TPBliiVLT5k9kqOGAwY-52" value="Não" style="edgeStyle=orthogonalEdgeStyle;rounded=0;orthogonalLoop=1;jettySize=auto;html=1;exitX=1;exitY=0.5;exitDx=0;exitDy=0;entryX=1;entryY=0.5;entryDx=0;entryDy=0;" parent="WIyWlLk6GJQsqaUBKTNV-1" source="3TPBliiVLT5k9kqOGAwY-50" target="3TPBliiVLT5k9kqOGAwY-6" edge="1">
          <mxGeometry x="-0.7205" y="1" relative="1" as="geometry">
            <Array as="points">
              <mxPoint x="414.5" y="381" />
              <mxPoint x="414.5" y="310" />
            </Array>
            <mxPoint x="1" as="offset" />
          </mxGeometry>
        </mxCell>
        <mxCell id="3TPBliiVLT5k9kqOGAwY-54" value="Sim" style="edgeStyle=orthogonalEdgeStyle;rounded=0;orthogonalLoop=1;jettySize=auto;html=1;exitX=0;exitY=0.5;exitDx=0;exitDy=0;entryX=0.5;entryY=0;entryDx=0;entryDy=0;" parent="WIyWlLk6GJQsqaUBKTNV-1" source="3TPBliiVLT5k9kqOGAwY-50" target="3TPBliiVLT5k9kqOGAwY-64" edge="1">
          <mxGeometry x="-0.3383" relative="1" as="geometry">
            <mxPoint x="312" y="437" as="targetPoint" />
            <mxPoint as="offset" />
          </mxGeometry>
        </mxCell>
        <mxCell id="3TPBliiVLT5k9kqOGAwY-50" value="&lt;div&gt;Central &lt;br&gt;&lt;/div&gt;&lt;div&gt;respondeu?&lt;/div&gt;" style="shape=parallelogram;perimeter=parallelogramPerimeter;whiteSpace=wrap;html=1;fixedSize=1;fillColor=#fff2cc;strokeColor=#d6b656;" parent="WIyWlLk6GJQsqaUBKTNV-1" vertex="1">
          <mxGeometry x="249.5" y="362" width="125" height="38" as="geometry" />
        </mxCell>
        <mxCell id="3TPBliiVLT5k9kqOGAwY-57" style="edgeStyle=orthogonalEdgeStyle;rounded=0;orthogonalLoop=1;jettySize=auto;html=1;entryX=0.5;entryY=0;entryDx=0;entryDy=0;" parent="WIyWlLk6GJQsqaUBKTNV-1" source="3TPBliiVLT5k9kqOGAwY-55" target="3TPBliiVLT5k9kqOGAwY-56" edge="1">
          <mxGeometry relative="1" as="geometry" />
        </mxCell>
        <mxCell id="3TPBliiVLT5k9kqOGAwY-55" value="Conectar na rede usando ID registrado" style="rounded=1;whiteSpace=wrap;html=1;fontSize=12;glass=0;strokeWidth=1;shadow=0;fillColor=#dae8fc;strokeColor=#6c8ebf;" parent="WIyWlLk6GJQsqaUBKTNV-1" vertex="1">
          <mxGeometry x="592.5" y="290" width="120" height="40" as="geometry" />
        </mxCell>
        <mxCell id="3TPBliiVLT5k9kqOGAwY-59" style="edgeStyle=orthogonalEdgeStyle;rounded=0;orthogonalLoop=1;jettySize=auto;html=1;entryX=0.5;entryY=0;entryDx=0;entryDy=0;" parent="WIyWlLk6GJQsqaUBKTNV-1" source="3TPBliiVLT5k9kqOGAwY-56" target="3TPBliiVLT5k9kqOGAwY-58" edge="1">
          <mxGeometry relative="1" as="geometry">
            <mxPoint x="652.5" y="440" as="targetPoint" />
          </mxGeometry>
        </mxCell>
        <mxCell id="3TPBliiVLT5k9kqOGAwY-56" value="Solicitar validação de ID da central" style="rounded=1;whiteSpace=wrap;html=1;fontSize=12;glass=0;strokeWidth=1;shadow=0;fillColor=#d5e8d4;strokeColor=#82b366;" parent="WIyWlLk6GJQsqaUBKTNV-1" vertex="1">
          <mxGeometry x="592.5" y="363" width="120" height="40" as="geometry" />
        </mxCell>
        <mxCell id="3TPBliiVLT5k9kqOGAwY-69" value="Sim" style="edgeStyle=orthogonalEdgeStyle;rounded=0;orthogonalLoop=1;jettySize=auto;html=1;entryX=1;entryY=0.5;entryDx=0;entryDy=0;exitX=1;exitY=0.5;exitDx=0;exitDy=0;" parent="WIyWlLk6GJQsqaUBKTNV-1" source="3TPBliiVLT5k9kqOGAwY-58" target="3TPBliiVLT5k9kqOGAwY-68" edge="1">
          <mxGeometry x="-0.8686" relative="1" as="geometry">
            <Array as="points">
              <mxPoint x="747" y="456" />
              <mxPoint x="747" y="509" />
            </Array>
            <mxPoint as="offset" />
          </mxGeometry>
        </mxCell>
        <mxCell id="3TPBliiVLT5k9kqOGAwY-73" value="Não" style="edgeStyle=orthogonalEdgeStyle;rounded=0;orthogonalLoop=1;jettySize=auto;html=1;exitX=0;exitY=0.5;exitDx=0;exitDy=0;entryX=0.5;entryY=1;entryDx=0;entryDy=0;" parent="WIyWlLk6GJQsqaUBKTNV-1" source="3TPBliiVLT5k9kqOGAwY-58" target="3TPBliiVLT5k9kqOGAwY-72" edge="1">
          <mxGeometry x="-0.3939" relative="1" as="geometry">
            <Array as="points">
              <mxPoint x="500" y="456" />
              <mxPoint x="500" y="350" />
              <mxPoint x="501" y="350" />
            </Array>
            <mxPoint as="offset" />
          </mxGeometry>
        </mxCell>
        <mxCell id="3TPBliiVLT5k9kqOGAwY-58" value="&lt;div&gt;A central validou&lt;/div&gt;&lt;div&gt;&amp;nbsp;o ID?&lt;/div&gt;" style="shape=parallelogram;perimeter=parallelogramPerimeter;whiteSpace=wrap;html=1;fixedSize=1;fillColor=#fff2cc;strokeColor=#d6b656;" parent="WIyWlLk6GJQsqaUBKTNV-1" vertex="1">
          <mxGeometry x="590" y="437" width="125" height="38" as="geometry" />
        </mxCell>
        <mxCell id="3TPBliiVLT5k9kqOGAwY-76" style="edgeStyle=orthogonalEdgeStyle;rounded=0;orthogonalLoop=1;jettySize=auto;html=1;entryX=0;entryY=0.5;entryDx=0;entryDy=0;" parent="WIyWlLk6GJQsqaUBKTNV-1" source="3TPBliiVLT5k9kqOGAwY-63" target="3TPBliiVLT5k9kqOGAwY-68" edge="1">
          <mxGeometry relative="1" as="geometry">
            <Array as="points">
              <mxPoint x="387" y="509" />
              <mxPoint x="387" y="509" />
            </Array>
          </mxGeometry>
        </mxCell>
        <mxCell id="3TPBliiVLT5k9kqOGAwY-63" value="Salvar novo ID na EEPROM" style="rounded=1;whiteSpace=wrap;html=1;fontSize=12;glass=0;strokeWidth=1;shadow=0;fillColor=#dae8fc;strokeColor=#6c8ebf;" parent="WIyWlLk6GJQsqaUBKTNV-1" vertex="1">
          <mxGeometry x="221" y="489" width="127.5" height="40" as="geometry" />
        </mxCell>
        <mxCell id="3TPBliiVLT5k9kqOGAwY-65" value="Sim" style="edgeStyle=orthogonalEdgeStyle;rounded=0;orthogonalLoop=1;jettySize=auto;html=1;entryX=0.5;entryY=0;entryDx=0;entryDy=0;" parent="WIyWlLk6GJQsqaUBKTNV-1" source="3TPBliiVLT5k9kqOGAwY-64" target="3TPBliiVLT5k9kqOGAwY-66" edge="1">
          <mxGeometry x="-0.4208" relative="1" as="geometry">
            <mxPoint x="63.5" y="455" as="targetPoint" />
            <Array as="points">
              <mxPoint x="91" y="455" />
              <mxPoint x="91" y="489" />
            </Array>
            <mxPoint as="offset" />
          </mxGeometry>
        </mxCell>
        <mxCell id="3TPBliiVLT5k9kqOGAwY-67" value="Não" style="edgeStyle=orthogonalEdgeStyle;rounded=0;orthogonalLoop=1;jettySize=auto;html=1;exitX=1;exitY=0.5;exitDx=0;exitDy=0;entryX=0.5;entryY=0;entryDx=0;entryDy=0;" parent="WIyWlLk6GJQsqaUBKTNV-1" source="3TPBliiVLT5k9kqOGAwY-64" target="3TPBliiVLT5k9kqOGAwY-63" edge="1">
          <mxGeometry x="-0.4393" relative="1" as="geometry">
            <Array as="points">
              <mxPoint x="285" y="455" />
            </Array>
            <mxPoint as="offset" />
          </mxGeometry>
        </mxCell>
        <mxCell id="3TPBliiVLT5k9kqOGAwY-64" value="O ID é 0?" style="shape=parallelogram;perimeter=parallelogramPerimeter;whiteSpace=wrap;html=1;fixedSize=1;fillColor=#fff2cc;strokeColor=#d6b656;" parent="WIyWlLk6GJQsqaUBKTNV-1" vertex="1">
          <mxGeometry x="123.5" y="436" width="125" height="38" as="geometry" />
        </mxCell>
        <mxCell id="3TPBliiVLT5k9kqOGAwY-66" value="Módulo desativa" style="rounded=1;whiteSpace=wrap;html=1;fontSize=12;glass=0;strokeWidth=1;shadow=0;fillColor=#f8cecc;strokeColor=#b85450;" parent="WIyWlLk6GJQsqaUBKTNV-1" vertex="1">
          <mxGeometry x="27" y="490" width="127.5" height="40" as="geometry" />
        </mxCell>
        <mxCell id="3TPBliiVLT5k9kqOGAwY-80" style="edgeStyle=orthogonalEdgeStyle;rounded=0;orthogonalLoop=1;jettySize=auto;html=1;entryX=0.5;entryY=0;entryDx=0;entryDy=0;" parent="WIyWlLk6GJQsqaUBKTNV-1" source="3TPBliiVLT5k9kqOGAwY-68" target="3TPBliiVLT5k9kqOGAwY-81" edge="1">
          <mxGeometry relative="1" as="geometry">
            <mxPoint x="487" y="560" as="targetPoint" />
          </mxGeometry>
        </mxCell>
        <mxCell id="3TPBliiVLT5k9kqOGAwY-68" value="Conectar na rede usando ID registrado" style="rounded=1;whiteSpace=wrap;html=1;fontSize=12;glass=0;strokeWidth=2;shadow=0;fillColor=#dae8fc;strokeColor=#6c8ebf;" parent="WIyWlLk6GJQsqaUBKTNV-1" vertex="1">
          <mxGeometry x="427" y="489" width="120" height="40" as="geometry" />
        </mxCell>
        <mxCell id="3TPBliiVLT5k9kqOGAwY-74" style="edgeStyle=orthogonalEdgeStyle;rounded=0;orthogonalLoop=1;jettySize=auto;html=1;entryX=1;entryY=0.5;entryDx=0;entryDy=0;" parent="WIyWlLk6GJQsqaUBKTNV-1" source="3TPBliiVLT5k9kqOGAwY-72" target="3TPBliiVLT5k9kqOGAwY-6" edge="1">
          <mxGeometry relative="1" as="geometry" />
        </mxCell>
        <mxCell id="3TPBliiVLT5k9kqOGAwY-72" value="Salvar ID 255 na EEPROM" style="rounded=1;whiteSpace=wrap;html=1;fontSize=12;glass=0;strokeWidth=1;shadow=0;fillColor=#dae8fc;strokeColor=#6c8ebf;" parent="WIyWlLk6GJQsqaUBKTNV-1" vertex="1">
          <mxGeometry x="437" y="290" width="127.5" height="40" as="geometry" />
        </mxCell>
        <mxCell id="3TPBliiVLT5k9kqOGAwY-83" style="edgeStyle=orthogonalEdgeStyle;rounded=0;orthogonalLoop=1;jettySize=auto;html=1;entryX=0.5;entryY=0;entryDx=0;entryDy=0;" parent="WIyWlLk6GJQsqaUBKTNV-1" source="3TPBliiVLT5k9kqOGAwY-81" target="3TPBliiVLT5k9kqOGAwY-82" edge="1">
          <mxGeometry relative="1" as="geometry" />
        </mxCell>
        <mxCell id="3TPBliiVLT5k9kqOGAwY-81" value="Ler dados dos sensores" style="rounded=1;whiteSpace=wrap;html=1;fontSize=12;glass=0;strokeWidth=1;shadow=0;fillColor=#dae8fc;strokeColor=#6c8ebf;" parent="WIyWlLk6GJQsqaUBKTNV-1" vertex="1">
          <mxGeometry x="416.63" y="555" width="140.75" height="30" as="geometry" />
        </mxCell>
        <mxCell id="3TPBliiVLT5k9kqOGAwY-85" style="edgeStyle=orthogonalEdgeStyle;rounded=0;orthogonalLoop=1;jettySize=auto;html=1;exitX=0.5;exitY=1;exitDx=0;exitDy=0;entryX=0.5;entryY=0;entryDx=0;entryDy=0;" parent="WIyWlLk6GJQsqaUBKTNV-1" source="3TPBliiVLT5k9kqOGAwY-82" target="3TPBliiVLT5k9kqOGAwY-84" edge="1">
          <mxGeometry relative="1" as="geometry" />
        </mxCell>
        <mxCell id="3TPBliiVLT5k9kqOGAwY-82" value="Enviar dados para a central" style="rounded=1;whiteSpace=wrap;html=1;fontSize=12;glass=0;strokeWidth=1;shadow=0;fillColor=#d5e8d4;strokeColor=#82b366;" parent="WIyWlLk6GJQsqaUBKTNV-1" vertex="1">
          <mxGeometry x="427.01" y="610" width="120" height="40" as="geometry" />
        </mxCell>
        <mxCell id="3TPBliiVLT5k9kqOGAwY-86" value="Não" style="edgeStyle=orthogonalEdgeStyle;rounded=0;orthogonalLoop=1;jettySize=auto;html=1;exitX=1;exitY=0.5;exitDx=0;exitDy=0;entryX=0;entryY=0.5;entryDx=0;entryDy=0;" parent="WIyWlLk6GJQsqaUBKTNV-1" source="3TPBliiVLT5k9kqOGAwY-84" target="3TPBliiVLT5k9kqOGAwY-82" edge="1">
          <mxGeometry x="0.0899" relative="1" as="geometry">
            <Array as="points">
              <mxPoint x="540" y="690" />
              <mxPoint x="394" y="690" />
              <mxPoint x="394" y="630" />
            </Array>
            <mxPoint as="offset" />
          </mxGeometry>
        </mxCell>
        <mxCell id="Q7FP9_OnJqvlH-NbxCvm-0" value="Sim" style="edgeStyle=orthogonalEdgeStyle;rounded=0;orthogonalLoop=1;jettySize=auto;html=1;" edge="1" parent="WIyWlLk6GJQsqaUBKTNV-1" source="3TPBliiVLT5k9kqOGAwY-84">
          <mxGeometry x="-0.2621" relative="1" as="geometry">
            <mxPoint x="487" y="740" as="targetPoint" />
            <mxPoint as="offset" />
          </mxGeometry>
        </mxCell>
        <mxCell id="3TPBliiVLT5k9kqOGAwY-84" value="&lt;div&gt;Central &lt;br&gt;&lt;/div&gt;&lt;div&gt;respondeu?&lt;/div&gt;" style="shape=parallelogram;perimeter=parallelogramPerimeter;whiteSpace=wrap;html=1;fixedSize=1;fillColor=#fff2cc;strokeColor=#d6b656;" parent="WIyWlLk6GJQsqaUBKTNV-1" vertex="1">
          <mxGeometry x="424.5" y="670" width="125" height="38" as="geometry" />
        </mxCell>
        <mxCell id="3TPBliiVLT5k9kqOGAwY-89" style="edgeStyle=orthogonalEdgeStyle;rounded=0;orthogonalLoop=1;jettySize=auto;html=1;entryX=0;entryY=0.5;entryDx=0;entryDy=0;" parent="WIyWlLk6GJQsqaUBKTNV-1" source="3TPBliiVLT5k9kqOGAwY-88" target="3TPBliiVLT5k9kqOGAwY-90" edge="1">
          <mxGeometry relative="1" as="geometry">
            <mxPoint x="614" y="740" as="targetPoint" />
          </mxGeometry>
        </mxCell>
        <mxCell id="3TPBliiVLT5k9kqOGAwY-88" value="Liberar endereço alocado pela rede" style="rounded=1;whiteSpace=wrap;html=1;fontSize=12;glass=0;strokeWidth=1;shadow=0;fillColor=#dae8fc;strokeColor=#6c8ebf;" parent="WIyWlLk6GJQsqaUBKTNV-1" vertex="1">
          <mxGeometry x="557.38" y="790" width="107" height="40" as="geometry" />
        </mxCell>
        <mxCell id="3TPBliiVLT5k9kqOGAwY-96" style="edgeStyle=orthogonalEdgeStyle;rounded=0;orthogonalLoop=1;jettySize=auto;html=1;entryX=0.5;entryY=1;entryDx=0;entryDy=0;" parent="WIyWlLk6GJQsqaUBKTNV-1" source="3TPBliiVLT5k9kqOGAwY-90" target="3TPBliiVLT5k9kqOGAwY-92" edge="1">
          <mxGeometry relative="1" as="geometry" />
        </mxCell>
        <mxCell id="3TPBliiVLT5k9kqOGAwY-98" value="" style="rounded=0;whiteSpace=wrap;html=1;dashed=1;fillColor=none;strokeColor=#d79b00;strokeWidth=3;" parent="WIyWlLk6GJQsqaUBKTNV-1" vertex="1">
          <mxGeometry x="380" y="480" width="439.5" height="360" as="geometry" />
        </mxCell>
        <mxCell id="3TPBliiVLT5k9kqOGAwY-90" value="&lt;div&gt;Entrar em modo &lt;br&gt;&lt;/div&gt;&lt;div&gt;&lt;i&gt;DeepSleep&lt;/i&gt;&lt;br&gt;&lt;/div&gt;" style="rounded=1;whiteSpace=wrap;html=1;fontSize=12;glass=0;strokeWidth=1;shadow=0;fillColor=#dae8fc;strokeColor=#6c8ebf;" parent="WIyWlLk6GJQsqaUBKTNV-1" vertex="1">
          <mxGeometry x="693.75" y="790" width="107" height="40" as="geometry" />
        </mxCell>
        <mxCell id="3TPBliiVLT5k9kqOGAwY-95" style="edgeStyle=orthogonalEdgeStyle;rounded=0;orthogonalLoop=1;jettySize=auto;html=1;exitX=0.5;exitY=0;exitDx=0;exitDy=0;endArrow=none;endFill=0;" parent="WIyWlLk6GJQsqaUBKTNV-1" source="3TPBliiVLT5k9kqOGAwY-92" edge="1">
          <mxGeometry relative="1" as="geometry">
            <mxPoint x="747" y="509" as="targetPoint" />
          </mxGeometry>
        </mxCell>
        <mxCell id="3TPBliiVLT5k9kqOGAwY-92" value="Acordar" style="rounded=1;whiteSpace=wrap;html=1;fontSize=12;glass=0;strokeWidth=1;shadow=0;fillColor=#dae8fc;strokeColor=#6c8ebf;" parent="WIyWlLk6GJQsqaUBKTNV-1" vertex="1">
          <mxGeometry x="715.5" y="610" width="63.5" height="30" as="geometry" />
        </mxCell>
        <mxCell id="Q7FP9_OnJqvlH-NbxCvm-3" style="edgeStyle=orthogonalEdgeStyle;rounded=0;orthogonalLoop=1;jettySize=auto;html=1;entryX=0;entryY=0.5;entryDx=0;entryDy=0;" edge="1" parent="WIyWlLk6GJQsqaUBKTNV-1" source="Q7FP9_OnJqvlH-NbxCvm-1" target="3TPBliiVLT5k9kqOGAwY-88">
          <mxGeometry relative="1" as="geometry">
            <Array as="points">
              <mxPoint x="490" y="810" />
            </Array>
          </mxGeometry>
        </mxCell>
        <mxCell id="Q7FP9_OnJqvlH-NbxCvm-1" value="Incrementar o contador de leituras da EEPROM" style="rounded=1;whiteSpace=wrap;html=1;fontSize=12;glass=0;strokeWidth=1;shadow=0;fillColor=#dae8fc;strokeColor=#6c8ebf;" vertex="1" parent="WIyWlLk6GJQsqaUBKTNV-1">
          <mxGeometry x="420.51" y="740" width="133" height="50" as="geometry" />
        </mxCell>
      </root>
    </mxGraphModel>
  </diagram>
</mxfile>
